<svg width="32" height="42" viewBox="0 0 32 42" fill="none" xmlns="http://www.w3.org/2000/svg">
<path d="M18.6564 1.8121C17.9345 -0.548759 14.1618 -0.658681 13.3436 1.8121C9.09182 14.7533 0 18.27 0 27.3911C0 35.4662 7.15636 42 16 42C24.8436 42 32 35.4662 32 27.3911C32 18.2241 22.9282 14.8124 18.6564 1.8121ZM16 36.75C10.3864 36.75 5.81818 32.6279 5.81818 27.5625C5.81818 26.8374 6.46909 26.25 7.27273 26.25C8.07636 26.25 8.72727 26.8374 8.72727 27.5625C8.72727 31.1809 11.99 34.125 16 34.125C16.8036 34.125 17.4545 34.7123 17.4545 35.4375C17.4545 36.1627 16.8036 36.75 16 36.75Z" fill="#8D0606" fill-opacity="0.43"/>
</svg>
