<svg width="10" height="12" viewBox="0 0 10 12" fill="none" xmlns="http://www.w3.org/2000/svg">
<path d="M9.54545 4.5H9.09091C8.83977 4.5 8.63636 4.66781 8.63636 4.875V6C8.63636 7.75313 6.80426 9.15984 4.63665 8.98547C2.74744 8.83336 1.36364 7.43227 1.36364 5.86641V4.875C1.36364 4.66781 1.16023 4.5 0.909091 4.5H0.454545C0.203409 4.5 0 4.66781 0 4.875V5.81625C0 7.91719 1.81733 9.79008 4.31818 10.0746V10.875H2.72727C2.47614 10.875 2.27273 11.0428 2.27273 11.25V11.625C2.27273 11.8322 2.47614 12 2.72727 12H7.27273C7.52386 12 7.72727 11.8322 7.72727 11.625V11.25C7.72727 11.0428 7.52386 10.875 7.27273 10.875H5.68182V10.0835C8.11676 9.80789 10 8.08359 10 6V4.875C10 4.66781 9.79659 4.5 9.54545 4.5ZM5 8.25C6.50625 8.25 7.72727 7.24266 7.72727 6H5.30312C5.1358 6 5 5.91609 5 5.8125V5.4375C5 5.33391 5.1358 5.25 5.30312 5.25H7.72727V4.5H5.30312C5.1358 4.5 5 4.41609 5 4.3125V3.9375C5 3.83391 5.1358 3.75 5.30312 3.75H7.72727V3H5.30312C5.1358 3 5 2.91609 5 2.8125V2.4375C5 2.33391 5.1358 2.25 5.30312 2.25H7.72727C7.72727 1.00734 6.50625 0 5 0C3.49375 0 2.27273 1.00734 2.27273 2.25V6C2.27273 7.24266 3.49375 8.25 5 8.25Z" fill="#00BFFB"/>
</svg>
