<svg width="45" height="45" viewBox="0 0 45 45" fill="none" xmlns="http://www.w3.org/2000/svg">
<path d="M42.2344 7.35497L24.2344 0.323035C23.6861 0.109773 23.0983 0 22.5047 0C21.9111 0 21.3233 0.109773 20.775 0.323035L2.775 7.35497C1.09687 8.00542 0 9.54366 0 11.2489C0 28.6969 10.7344 40.7567 20.7656 44.677C21.8719 45.1077 23.1187 45.1077 24.225 44.677C32.2594 41.539 45 30.701 45 11.2489C45 9.54366 43.9031 8.00542 42.2344 7.35497ZM22.5094 39.2272L22.5 5.73763L38.9906 12.1806C38.6812 25.4886 31.2938 35.1311 22.5094 39.2272Z" fill="black" fill-opacity="0.5"/>
</svg>
