<svg width="18" height="12" viewBox="0 0 18 12" fill="none" xmlns="http://www.w3.org/2000/svg">
<path d="M15.12 5.2125C15.2353 4.92589 15.3 4.6125 15.3 4.28571C15.3 2.86607 14.0906 1.71429 12.6 1.71429C12.0459 1.71429 11.5284 1.875 11.1009 2.14821C10.3219 0.8625 8.86781 0 7.2 0C4.71375 0 2.7 1.91786 2.7 4.28571C2.7 4.35804 2.70281 4.43036 2.70562 4.50268C1.13062 5.03036 0 6.46071 0 8.14286C0 10.2723 1.81406 12 4.05 12H14.4C16.3884 12 18 10.4652 18 8.57143C18 6.91339 16.7625 5.52857 15.12 5.2125ZM11.0644 6.85714H9.225V9.85714C9.225 10.0929 9.0225 10.2857 8.775 10.2857H7.425C7.1775 10.2857 6.975 10.0929 6.975 9.85714V6.85714H5.13562C4.73344 6.85714 4.53375 6.39643 4.81781 6.12589L7.78219 3.30268C7.95656 3.13661 8.24344 3.13661 8.41781 3.30268L11.3822 6.12589C11.6663 6.39643 11.4637 6.85714 11.0644 6.85714Z" fill="#00BFFB"/>
</svg>
