<svg width="14" height="14" viewBox="0 0 14 14" fill="none" xmlns="http://www.w3.org/2000/svg">
<path d="M5.22642 1.60568L3.06396 4.19994H0.583333C0.261042 4.19994 0 4.51317 0 4.89991V9.09971C0 9.48615 0.261042 9.79967 0.583333 9.79967H3.06396L5.22642 12.3939C5.59174 12.8323 6.22222 12.5243 6.22222 11.899V2.10062C6.22222 1.47473 5.59125 1.16791 5.22642 1.60568ZM10.8974 0.115921C10.6259 -0.0978602 10.2611 -0.00773944 10.0829 0.31862C9.90451 0.644397 9.98035 1.08217 10.2518 1.29595C11.8626 2.56435 12.8239 4.69662 12.8239 7.0001C12.8239 9.30357 11.8626 11.4358 10.2518 12.7042C9.98035 12.9177 9.90451 13.3558 10.0829 13.6813C10.254 13.9936 10.6159 14.1059 10.8974 13.884C12.8399 12.354 14 9.78013 14 6.99981C14 4.21948 12.8399 1.64593 10.8974 0.115921ZM11.6667 6.99981C11.6667 5.14693 10.8874 3.44339 9.58198 2.44302C9.31 2.23478 8.94931 2.33161 8.77698 2.66059C8.60465 2.98958 8.6851 3.42502 8.95708 3.63355C9.92323 4.37405 10.5 5.63225 10.5 6.99981C10.5 8.36737 9.92323 9.62556 8.95708 10.3661C8.6851 10.5743 8.60465 11.0097 8.77698 11.339C8.93521 11.6412 9.29031 11.7806 9.58198 11.5566C10.8874 10.5562 11.6667 8.85297 11.6667 6.99981ZM8.22087 4.75787C7.93941 4.57325 7.58431 4.69487 7.42826 5.03348C7.27295 5.37209 7.37576 5.79761 7.65795 5.98456C7.97174 6.19134 8.16667 6.5807 8.16667 6.99981C8.16667 7.4192 7.97174 7.80827 7.65819 8.01505C7.37601 8.202 7.27319 8.62752 7.42851 8.96613C7.58479 9.3062 7.94014 9.42694 8.22111 9.24174C8.90726 8.78822 9.33358 7.9293 9.33358 6.99951C9.33358 6.06973 8.90726 5.2111 8.22087 4.75787Z" fill="#00BFFB"/>
</svg>
